<?xml version="1.0" standalone="no"?>
<!DOCTYPE svg PUBLIC "-//W3C//DTD SVG 20010904//EN"
 "http://www.w3.org/TR/2001/REC-SVG-20010904/DTD/svg10.dtd">
<svg version="1.0" xmlns="http://www.w3.org/2000/svg"
 width="200.000000pt" height="200.000000pt" viewBox="0 0 200.000000 200.000000"
 preserveAspectRatio="xMidYMid meet">

<g transform="translate(0.000000,200.000000) scale(0.100000,-0.100000)"
fill="#000000" stroke="none">
<path d="M1690 1300 c0 -22 -4 -28 -15 -24 -8 4 -26 -1 -40 -10 -51 -33 -17
-121 43 -114 27 3 27 4 30 91 2 55 -1 87 -8 87 -5 0 -10 -13 -10 -30z m-2 -88
c3 -35 0 -42 -15 -42 -38 0 -58 51 -31 78 24 24 43 9 46 -36z"/>
<path d="M1420 1310 c0 -5 7 -10 15 -10 8 0 15 5 15 10 0 6 -7 10 -15 10 -8 0
-15 -4 -15 -10z"/>
<path d="M278 1233 c-88 -75 -106 -103 -68 -103 18 0 20 -7 20 -69 0 -107 -9
-101 151 -101 104 0 139 3 140 13 0 6 6 0 12 -15 18 -38 45 -65 73 -72 19 -5
24 -11 19 -26 -4 -13 -1 -22 10 -26 10 -4 13 -13 10 -24 -3 -10 -1 -21 5 -25
5 -3 10 -17 10 -31 0 -15 6 -24 15 -24 8 0 15 -7 15 -15 0 -16 36 -39 49 -31
5 3 -5 51 -22 106 -25 81 -34 100 -50 100 -55 0 -117 59 -117 112 0 18 -2 20
-10 8 -7 -11 -10 5 -10 53 l0 67 34 0 c49 0 64 -22 37 -56 -30 -38 -28 -98 4
-129 19 -20 34 -25 73 -25 41 0 50 -3 48 -17 0 -12 5 -17 15 -15 10 1 19 -6
22 -18 3 -11 12 -20 20 -20 8 0 17 -9 20 -21 3 -12 12 -19 19 -17 7 3 19 -1
26 -9 16 -16 48 -17 57 -3 4 6 -29 47 -72 91 -54 56 -77 87 -75 101 9 50 -44
108 -97 108 -11 0 -31 10 -45 23 -13 12 -38 32 -55 45 -23 18 -31 31 -31 56 0
17 -5 37 -12 44 -15 15 -50 16 -64 2 -7 -7 -18 -2 -34 15 -13 14 -31 25 -39
25 -9 -1 -55 -35 -103 -77z m142 37 c28 -25 36 -27 43 -15 4 8 17 15 27 15 16
0 20 -7 20 -34 0 -19 9 -45 21 -60 20 -26 20 -26 0 -26 -11 0 -33 -11 -48 -24
-23 -20 -28 -32 -28 -69 0 -30 6 -52 19 -66 l19 -21 -121 0 -122 0 0 84 c0 85
0 85 -27 88 -25 3 -21 8 62 80 50 43 92 77 95 77 3 0 21 -13 40 -29z m90 -217
l-1 -78 -19 24 c-24 28 -26 78 -4 109 8 12 17 22 20 22 2 0 4 -35 4 -77z m131
-23 c5 0 9 8 9 17 0 13 3 14 11 6 17 -17 3 -43 -21 -43 -24 0 -36 22 -24 48 7
15 8 14 11 -5 3 -13 9 -23 14 -23z"/>
<path d="M680 1235 c0 -43 4 -75 10 -75 6 0 10 16 10 35 0 34 1 35 40 35 39 0
40 -1 40 -35 0 -19 5 -35 10 -35 6 0 10 32 10 75 0 43 -4 75 -10 75 -5 0 -10
-13 -10 -30 0 -28 -2 -30 -40 -30 -38 0 -40 2 -40 30 0 17 -4 30 -10 30 -6 0
-10 -32 -10 -75z"/>
<path d="M1300 1235 c0 -60 3 -75 15 -75 10 0 15 11 15 35 0 32 2 35 30 35 17
0 30 5 30 10 0 6 -13 10 -30 10 -25 0 -30 4 -30 24 0 21 5 25 38 29 30 3 28 4
-15 5 l-53 2 0 -75z"/>
<path d="M864 1272 c-38 -25 -39 -93 -2 -113 61 -32 109 50 61 104 -17 18 -40
22 -59 9z m44 -21 c8 -5 12 -22 10 -42 -2 -29 -7 -34 -28 -34 -20 0 -26 6 -28
28 -6 51 12 70 46 48z"/>
<path d="M993 1273 c-16 -6 -18 -113 -3 -113 6 0 10 23 10 50 0 34 4 50 13 50
23 0 37 -23 37 -62 0 -21 5 -38 10 -38 6 0 10 23 10 50 0 42 3 50 19 50 22 0
31 -19 31 -66 0 -19 5 -34 10 -34 12 0 13 80 1 99 -9 14 -111 24 -138 14z"/>
<path d="M1192 1264 c-51 -35 -2 -134 54 -109 17 8 17 9 -6 13 -59 10 -66 42
-10 42 33 0 40 3 40 19 0 22 -25 51 -43 51 -7 0 -23 -7 -35 -16z m56 -21 c2
-9 -7 -13 -28 -13 -28 0 -31 2 -20 15 15 18 41 16 48 -2z"/>
<path d="M1493 1273 c-20 -7 -17 -113 2 -113 11 0 15 12 15 50 0 42 3 50 19
50 22 0 31 -19 31 -66 0 -19 5 -34 10 -34 17 0 12 87 -6 104 -15 16 -46 20
-71 9z"/>
<path d="M1767 1263 c-19 -23 -23 -41 -14 -75 8 -30 44 -46 74 -33 19 8 16 9
-29 19 -45 10 -35 36 12 36 32 0 40 4 40 18 0 22 -30 52 -52 52 -8 0 -22 -8
-31 -17z m53 -18 c11 -13 8 -15 -19 -15 -30 0 -39 9 -24 23 11 11 30 8 43 -8z"/>
<path d="M1893 1273 c-16 -6 -18 -113 -3 -113 6 0 10 23 10 50 0 47 2 50 26
50 14 0 23 4 19 10 -6 10 -31 12 -52 3z"/>
<path d="M1430 1215 c0 -30 5 -55 10 -55 6 0 10 25 10 55 0 30 -4 55 -10 55
-5 0 -10 -25 -10 -55z"/>
</g>
</svg>
